<?xml version="1.0" encoding="utf-8"?>
<!-- Generator: Adobe Illustrator 15.1.0, SVG Export Plug-In  -->
<!DOCTYPE svg PUBLIC "-//W3C//DTD SVG 1.1//EN" "http://www.w3.org/Graphics/SVG/1.1/DTD/svg11.dtd" [
	<!ENTITY ns_flows "http://ns.adobe.com/Flows/1.0/">
]>
<svg version="1.1"
	 xmlns="http://www.w3.org/2000/svg" xmlns:xlink="http://www.w3.org/1999/xlink" xmlns:a="http://ns.adobe.com/AdobeSVGViewerExtensions/3.0/"
	 x="0px" y="0px" width="17px" height="10px" viewBox="0 0 17 10" enable-background="new 0 0 17 10" xml:space="preserve">
<defs>
</defs>
<path fill="#219EFF" d="M16.563,2.544L9.731,9.359c-0.048,0.07-0.076,0.148-0.14,0.209C9.291,9.869,8.895,10.008,8.5,10
	c-0.394,0.008-0.791-0.131-1.091-0.432c-0.063-0.061-0.09-0.139-0.14-0.209L0.438,2.544c-0.583-0.582-0.583-1.525,0-2.107
	c0.584-0.582,1.529-0.582,2.112,0L8.5,6.373l5.95-5.937c0.584-0.582,1.529-0.582,2.112,0C17.146,1.019,17.146,1.962,16.563,2.544z"
	/>
</svg>
